<svg xmlns="http://www.w3.org/2000/svg" xmlns:svg="http://www.w3.org/2000/svg" id="Layer_1" width="136.38" height="136.37" x="0" y="0" version="1.1" viewBox="0 0 136.38 136.37" xml:space="preserve"><metadata id="metadata949"/><style id="style902" type="text/css">.st0{fill:#2656a6}.st1{fill:#671d5b}</style><g id="g922" transform="translate(-43.87,-12.73)" style="fill:#bf0a30;fill-opacity:1"><path id="path904" d="m 148.32,138.66 c 19.18,-12.07 31.93,-33.41 31.93,-57.74 0,-14.08 -4.27,-27.17 -11.59,-38.03 -3.23,1.69 -6.56,3.2 -9.99,4.53 -0.53,4.36 -4.24,7.74 -8.74,7.74 -0.57,0 -1.13,-0.06 -1.68,-0.16 -15.69,16.03 -25.55,37.78 -26.13,61.79 3.79,0.98 6.59,4.42 6.59,8.52 0,1.01 -0.18,1.98 -0.49,2.88 6.2,4.27 12.94,7.8 20.1,10.47 z" class="st0" style="fill:#bf0a30;fill-opacity:1"/><path id="path906" d="m 116.36,133.36 c -3.09,-1.37 -5.26,-4.46 -5.26,-8.06 0,-0.78 0.11,-1.52 0.3,-2.24 -7.09,-6.94 -13.14,-14.93 -17.89,-23.73 -0.16,0.01 -0.33,0.02 -0.49,0.02 -3.63,0 -6.74,-2.2 -8.09,-5.33 -4.53,0.79 -9.17,1.27 -13.9,1.41 -9,0.27 -17.75,-0.68 -26.11,-2.7 5.6,32.02 33.52,56.37 67.15,56.37 2.64,0 5.24,-0.17 7.8,-0.46 -1.56,-4.93 -2.75,-10.04 -3.51,-15.28 z" class="st0" style="fill:#bf0a30;fill-opacity:1"/><path id="path908" d="m 140.99,52.42 c -5.76,1.05 -11.7,1.61 -17.76,1.61 -9.69,0 -19.06,-1.42 -27.92,-4.04 -1.33,2.48 -3.81,4.25 -6.72,4.6 0.19,9.47 1.81,18.59 4.68,27.16 1.91,0.05 3.66,0.71 5.08,1.79 17.13,-6.02 31.9,-16.98 42.64,-31.12 z" class="st0" style="fill:#bf0a30;fill-opacity:1"/><path id="path910" d="m 86.92,84.19 c -3.34,-9.87 -5.15,-20.44 -5.15,-31.43 0,-0.09 0,-0.17 0,-0.26 -1.87,-1.62 -3.05,-4 -3.05,-6.66 0,-0.8 0.12,-1.57 0.32,-2.31 -5.64,-2.85 -10.97,-6.22 -15.93,-10.06 -11.9,12.28 -19.24,29 -19.24,47.45 0,1.54 0.07,3.07 0.17,4.58 8.51,2.31 17.5,3.43 26.77,3.15 4.8,-0.15 9.5,-0.66 14.08,-1.52 0.47,-1.12 1.17,-2.11 2.03,-2.94 z" class="st0" style="fill:#bf0a30;fill-opacity:1"/><path id="path912" d="m 141.17,45.47 c 0.44,-4.45 4.2,-7.93 8.77,-7.93 0.09,0 0.18,0.01 0.26,0.01 1.6,-3.24 3.02,-6.59 4.24,-10.03 -11.64,-9.25 -26.36,-14.79 -42.38,-14.79 -5.18,0 -10.23,0.6 -15.08,1.69 -3.33,7.19 -5.75,14.88 -7.12,22.93 2.84,0.78 5.11,2.94 6.03,5.72 8.64,2.7 17.82,4.16 27.33,4.16 6.15,0.01 12.15,-0.61 17.95,-1.76 z" class="st0" style="fill:#bf0a30;fill-opacity:1"/><path id="path914" d="m 115.33,117.41 c 0.23,-14.17 3.47,-27.62 9.11,-39.74 -6.95,4.88 -14.55,8.88 -22.67,11.85 0.04,0.33 0.06,0.67 0.06,1.02 0,2.23 -0.84,4.27 -2.21,5.82 4.22,7.76 9.52,14.85 15.71,21.05 z" class="st0" style="fill:#bf0a30;fill-opacity:1"/><path id="path916" d="m 123.66,133.27 c -0.14,0.07 -0.28,0.13 -0.42,0.19 0.77,4.83 1.91,9.53 3.4,14.07 4.87,-1.06 9.54,-2.64 13.96,-4.68 -5.98,-2.64 -11.65,-5.86 -16.94,-9.58 z" class="st0" style="fill:#bf0a30;fill-opacity:1"/><path id="path918" d="m 88.54,16.9 c -7.51,2.76 -14.4,6.82 -20.4,11.88 4.6,3.47 9.54,6.52 14.76,9.09 1.11,-7.28 3.02,-14.3 5.64,-20.97 z" class="st0" style="fill:#bf0a30;fill-opacity:1"/><path id="path920" d="m 159.9,32.34 c -0.8,2.07 -1.67,4.1 -2.6,6.1 1.69,-1.19 3.43,-2.33 5.2,-3.41 -0.84,-0.92 -1.71,-1.82 -2.6,-2.69 z" class="st0" style="fill:#bf0a30;fill-opacity:1"/></g><circle id="circle924" cx="43.44" cy="33.13" r="6.41" class="st1" style="fill:#002868;fill-opacity:1"/><circle id="circle926" cx="49.36" cy="77.94" r="6.41" class="st1" style="fill:#002868;fill-opacity:1"/><circle id="circle928" cx="106.3" cy="33.86" r="6.41" class="st1" style="fill:#002868;fill-opacity:1"/><circle id="circle930" cx="76.23" cy="112.5" r="6.41" class="st1" style="fill:#002868;fill-opacity:1"/></svg>